<?xml version="1.0" encoding="UTF-8" standalone="no"?>
<!-- Created with Inkscape (http://www.inkscape.org/) -->

<svg
   xmlns:dc="http://purl.org/dc/elements/1.1/"
   xmlns:cc="http://creativecommons.org/ns#"
   xmlns:rdf="http://www.w3.org/1999/02/22-rdf-syntax-ns#"
   xmlns:svg="http://www.w3.org/2000/svg"
   xmlns="http://www.w3.org/2000/svg"
   xmlns:sodipodi="http://sodipodi.sourceforge.net/DTD/sodipodi-0.dtd"
   xmlns:inkscape="http://www.inkscape.org/namespaces/inkscape"
   version="1.1"
   id="svg815"
   width="194"
   height="155"
   viewBox="0 0 194 155"
   sodipodi:docname="logo.svg"
   inkscape:version="0.92.2 (5c3e80d, 2017-08-06)">
  <metadata
     id="metadata821">
    <rdf:RDF>
      <cc:Work
         rdf:about="">
        <dc:format>image/svg+xml</dc:format>
        <dc:type
           rdf:resource="http://purl.org/dc/dcmitype/StillImage" />
        <dc:title></dc:title>
      </cc:Work>
    </rdf:RDF>
  </metadata>
  <defs
     id="defs819" />
  <sodipodi:namedview
     pagecolor="#ffffff"
     bordercolor="#666666"
     borderopacity="1"
     objecttolerance="10"
     gridtolerance="10"
     guidetolerance="10"
     inkscape:pageopacity="0"
     inkscape:pageshadow="2"
     inkscape:window-width="1920"
     inkscape:window-height="1018"
     id="namedview817"
     showgrid="false"
     inkscape:zoom="5.4774194"
     inkscape:cx="97"
     inkscape:cy="62.894582"
     inkscape:window-x="-8"
     inkscape:window-y="-8"
     inkscape:window-maximized="1"
     inkscape:current-layer="svg815" />
  <path
     style="fill:#000000"
     d="m 93.051082,139.29062 c -1.355,-1.06584 -7.15318,-3.15828 -12.88486,-4.64986 C 67.882397,131.44409 56.835393,126.18929 49.026882,119.82852 39.192714,111.81766 29.902143,95.572726 28.530266,83.989368 l -0.563854,-4.760864 h 17.107354 17.107353 l 1.595591,-2.75 c 0.877575,-1.5125 1.289897,-1.85 0.916272,-0.75 -1.802798,5.307672 -2.570061,10.386552 -2.152739,14.250002 0.394662,3.65367 0.195686,4.25 -1.418086,4.25 -1.03244,0 -1.877163,0.36257 -1.877163,0.80572 0,1.26336 4.148268,6.541634 8.083339,10.285274 1.970837,1.87495 5.053516,6.33401 6.850398,9.90901 5.950371,11.83861 7.275721,11.87317 3.475262,0.0906 -2.550732,-7.90802 -2.586328,-8.33687 -1.028484,-12.39107 1.533643,-3.991204 11.874143,-16.699534 13.588073,-16.699534 0.44486,0 1.11947,1.65584 1.49914,3.67965 0.66917,3.56702 0.48419,3.86647 -6.04312,9.78277 l -6.733412,6.103124 3.530932,4.96723 c 1.94201,2.73198 4.33505,6.54223 5.31787,8.46723 3.14026,6.1507 9.24496,22 8.47377,22 -0.40923,0 -1.85269,-0.87205 -3.20768,-1.93789 z M 110.77663,128.9467 c 2.56121,-2.905 6.52686,-8.83955 8.81256,-13.1879 5.7208,-10.88338 7.45726,-11.99023 18.41832,-11.74013 7.59556,0.1733 18.63792,1.8244 14.09458,2.10748 -0.9036,0.0563 -5.6286,4.04839 -10.5,8.87131 -9.14817,9.05712 -18.138,14.74325 -28.07727,17.75908 -7.43621,2.25633 -7.73333,1.84443 -2.74819,-3.80984 z m 33.88097,-27.65468 c -6.98237,-4.005224 -8.67659,-6.960764 -10.7846,-18.813516 l -0.57801,-3.25 h 7.4891 c 7.05668,0 7.64706,0.173992 10.225,3.013404 2.61017,2.874928 2.86379,2.945798 5.51882,1.542224 1.53061,-0.80915 2.51655,-1.040182 2.19098,-0.513405 -0.8509,1.376796 0.87055,1.180378 2.56112,-0.292223 0.78926,-0.6875 0.42926,-0.096 -0.8,1.314451 -1.22926,1.410451 -2.23502,2.866911 -2.23502,3.236581 0,1.53667 7.66821,3.70461 13.37212,3.78054 l 6.12788,0.0816 -3.5,1.52939 c -3.3678,1.47162 -11.15185,1.38379 -16.5,-0.18617 -1.63805,-0.48085 -2.32504,0.21139 -3.79605,3.82511 -3.22924,7.933014 -3.48444,8.062984 -9.29134,4.732034 z M 129.27705,69.305915 C 126.33387,62.200441 115.83376,55.106769 106.20489,53.718807 95.925982,52.237143 80.089242,57.707311 72.674729,65.300461 l -3.835631,3.928043 H 48.542046 28.244994 v -2.894665 c 0,-1.592066 0.948916,-5.966897 2.108702,-9.721846 L 32.462397,49.784811 30.15798,48.256657 C 23.29085,43.702783 23.091283,44.51521 33.492921,34.680322 51.535506,17.620817 70.865012,9.2372554 93.244992,8.7647534 c 6.324998,-0.133539 8.462498,-0.06411 4.75,0.154287 -3.7125,0.218395 -6.75,0.533232 -6.75,0.699636 0,0.166403 0.64784,1.6091886 1.43964,3.2061896 0.7918,1.597001 1.6822,5.378638 1.97867,8.403638 0.3686,3.760927 0.28249,4.551415 -0.27234,2.5 -1.18888,-4.395748 -3.62336,-8.689408 -6.39381,-11.276686 l -2.43787,-2.276686 -7.407145,2.337983 c -6.500848,2.051921 -7.395472,2.623986 -7.311755,4.675484 0.08939,2.19042 0.01138,2.222618 -1.239668,0.511704 -2.254216,-3.082825 -2.591569,-0.907435 -0.413345,2.665421 2.982915,4.892761 2.522764,5.340964 -1.253206,1.220667 -3.980021,-4.342955 -4.652717,-4.223789 -14.890362,2.637782 -12.390236,8.3043 -11.880904,7.560307 -7.733199,11.296071 1.959119,1.764543 4.433314,4.286239 5.498213,5.603769 1.936179,2.395509 1.936179,2.395509 -0.258127,1.244623 -1.206869,-0.632988 -2.474901,-1.604898 -2.817849,-2.159799 -0.342948,-0.554902 -2.50551,-1.962036 -4.805694,-3.126965 l -4.182151,-2.118053 1.980721,2.216028 c 1.980722,2.216027 1.980722,2.216027 -0.759891,0.96732 -2.441039,-1.112212 -3.012804,-0.992996 -5.230721,1.090629 -1.36956,1.286635 -2.490109,2.702432 -2.490109,3.146215 0,0.443784 4.212594,3.973265 9.36132,7.843292 l 9.361319,7.036413 6.556008,-6.428202 c 4.646758,-4.556173 9.106047,-7.69193 15.312366,-10.767606 8.607045,-4.265412 8.957105,-4.345436 20.529325,-4.693157 9.896358,-0.297364 11.842688,-0.616164 12.210318,-2 0.33109,-1.246306 0.46552,-1.154871 0.55334,0.376368 0.0922,1.607472 1.27192,2.291356 5.74778,3.331952 3.09747,0.720135 6.24747,1.545604 7,1.834374 1.05104,0.403322 1.36822,-0.697508 1.36822,-4.748619 0,-6.512015 0.71165,-6.058265 1.7435,1.111663 0.73118,5.080663 1.05623,5.574337 5.16132,7.838837 4.68086,2.582105 11.67461,9.007688 14.26834,13.109178 l 1.58097,2.5 4.62293,-2.237003 c 2.54262,-1.230352 4.62294,-2.03947 4.62294,-1.798041 0,0.24143 -2.00966,1.821643 -4.4659,3.511585 -4.05898,2.792648 -4.37789,3.304112 -3.5,5.61314 1.99936,5.258736 1.58855,5.596222 -6.3778,5.239323 -6.5903,-0.295251 -7.29647,-0.14947 -6.88337,1.420996 0.73613,2.798471 -0.418,2.021091 -1.74087,-1.172589 z m 9.96794,-11.642628 c 0,-1.46923 -11.08756,-11.430099 -12.68478,-11.395783 -0.99837,0.02145 -3.32454,2.089635 -5.16925,4.595966 -4.22766,5.743911 -3.28489,7.351917 3.28082,5.595857 3.5624,-0.952797 5.15463,-0.909593 8.24416,0.223696 4.16837,1.529026 6.32905,1.863679 6.32905,0.980264 z M 83.543142,56.597021 c 0.72535,-0.72535 -0.23687,-2.670631 -5.018079,-10.144871 l -3.416432,-5.340742 -3.681818,2.154587 c -5.040935,2.949937 -12.113238,8.302565 -12.150898,9.19633 -0.01701,0.403602 1.528475,-0.0098 3.434403,-0.918676 4.09437,-1.952469 8.978861,-0.919937 14.625664,3.091718 3.55471,2.52537 5.14186,3.026958 6.20716,1.961654 z m 14.70185,-11.368517 v -8 h -4.5 c -2.8919,0 -4.5,0.439113 -4.5,1.228788 0,0.675833 1.16434,4.275833 2.58743,8 1.94861,5.099475 3.05961,6.771212 4.49999,6.771212 1.72406,0 1.91258,-0.788561 1.91258,-8 z m 15.933618,1.974414 3.06199,-6.025586 -2.56291,-0.974414 c -5.37649,-2.044137 -5.64249,-1.726916 -6.93938,8.275586 -0.55579,4.286618 -0.42104,4.75 1.38123,4.75 1.43639,0 2.85677,-1.691735 5.05907,-6.025586 z"
     id="path4514"
     inkscape:connector-curvature="0" />
</svg>
